<?xml version="1.0" encoding="UTF-8"?>
<svg version="1.1" xmlns="http://www.w3.org/2000/svg" width="500" height="500">
<path d="M0 0 C2.38526512 -0.00434343 4.76862833 -0.0406907 7.15356445 -0.07861328 C21.85872824 -0.18706082 35.71125641 2.61298684 49.53833008 7.62060547 C50.36582764 7.91725098 51.1933252 8.21389648 52.04589844 8.51953125 C64.64814203 13.18414798 75.31169095 19.34123398 85.35083008 28.37060547 C86.83196289 29.67191406 86.83196289 29.67191406 88.34301758 30.99951172 C107.67458086 48.16431484 120.46464838 68.43338294 127.35083008 93.37060547 C127.54837891 94.08216797 127.74592773 94.79373047 127.94946289 95.52685547 C133.37105474 115.97095959 133.13910565 137.82890327 128.35083008 158.37060547 C128.19614258 159.22912109 128.04145508 160.08763672 127.88208008 160.97216797 C123.99230456 182.14152322 109.93568419 203.1387338 95.35083008 218.37060547 C94.76688477 219.00611328 94.18293945 219.64162109 93.58129883 220.29638672 C89.74282177 224.35060956 85.55795252 227.51310476 80.92895508 230.62451172 C79.285935 231.73728441 77.66745875 232.88784687 76.08520508 234.08544922 C50.027832 253.62847902 14.87333654 258.58524419 -16.76245117 254.87451172 C-20.79587587 254.27339373 -24.6999154 253.38765129 -28.64916992 252.37060547 C-29.30062988 252.20431641 -29.95208984 252.03802734 -30.62329102 251.86669922 C-48.6494907 247.12873483 -63.92336212 238.66486738 -78.64916992 227.37060547 C-79.52992188 226.70061523 -79.52992188 226.70061523 -80.4284668 226.01708984 C-87.58021665 220.51766959 -93.43373384 214.7233477 -98.64916992 207.37060547 C-99.03814453 206.82807129 -99.42711914 206.28553711 -99.82788086 205.7265625 C-121.29841345 175.54881549 -129.44416779 140.84143077 -123.80737305 104.1003418 C-119.0790205 77.02250928 -103.46671787 50.98951141 -83.64916992 32.37060547 C-83.07166992 31.81115234 -82.49416992 31.25169922 -81.89916992 30.67529297 C-66.56652632 16.46616205 -46.82456453 7.33204419 -26.64916992 2.37060547 C-25.89563232 2.1851416 -25.14209473 1.99967773 -24.36572266 1.80859375 C-16.27625961 0.07915958 -8.23559939 -0.00166932 0 0 Z M-66.71166992 68.05810547 C-76.05332023 79.6728418 -82.50062639 90.9879849 -86.64916992 105.37060547 C-87.04942383 106.73185547 -87.04942383 106.73185547 -87.45776367 108.12060547 C-92.63931222 130.41913163 -87.58728485 154.97666907 -76.43041992 174.55810547 C-62.47772041 196.58868365 -42.55077111 212.89135066 -16.89916992 219.12060547 C9.06899281 224.56653533 33.00273008 219.50200553 55.20239258 205.21044922 C60.40156245 201.73536246 64.93369141 197.78774414 69.35083008 193.37060547 C70.03016602 192.77376953 70.70950195 192.17693359 71.40942383 191.56201172 C86.9804502 177.44792349 94.66012944 153.97414227 95.70239258 133.53857422 C96.13367777 120.02080448 94.7021033 108.15727097 90.35083008 95.37060547 C90.06336914 94.42572266 89.7759082 93.48083984 89.47973633 92.50732422 C82.57085128 72.30957893 64.88500156 55.41109872 46.28833008 46.05810547 C6.90794346 26.99058166 -37.60617584 34.28135925 -66.71166992 68.05810547 Z " fill="#F8F8F8" transform="translate(241.649169921875,131.62939453125)"/>
<path d="M0 0 C12.2038795 -0.09523012 24.40684067 -0.1058322 36.61102295 -0.0916748 C40.59086402 -0.08905185 44.5706829 -0.09390297 48.5505209 -0.09866524 C52.42233173 -0.10229108 56.29413001 -0.10112399 60.16594124 -0.09853745 C61.99617583 -0.09787686 63.82641162 -0.09866572 65.65664482 -0.101017 C95.87288358 -0.13140197 95.87288358 -0.13140197 104.76593018 7.41809082 C111.4412953 14.7111763 111.97294136 24.57978994 113.01739502 33.91394043 C113.25887938 36.06970649 113.51490878 38.22333066 113.77374268 40.3770752 C114.73815977 48.55933557 115.45182418 56.72813947 115.93536377 64.95275879 C116.09280362 67.35933941 116.30911739 69.71089464 116.63702393 72.09777832 C117.39371372 78.05671046 117.74146523 84.0429849 118.13702393 90.03527832 C114.40117005 88.90448238 111.43815956 87.75697634 108.32452393 85.41027832 C92.44029155 74.50150902 72.99781233 68.16747616 54.13702393 65.03527832 C53.22895996 64.86326904 52.320896 64.69125977 51.38531494 64.51403809 C45.77459938 63.68708482 40.12446043 63.81014476 34.46417236 63.79504395 C32.30262949 63.78545839 30.14208938 63.75444595 27.98077393 63.72277832 C-1.22181184 63.50130805 -28.07778798 74.33408686 -52.2230835 90.11730957 C-53.86297607 91.03527832 -53.86297607 91.03527832 -55.86297607 91.03527832 C-55.04793055 79.31421758 -53.93635033 67.61929648 -52.81610107 55.92419434 C-52.59721418 53.62181037 -52.382049 51.31906956 -52.17059326 49.01599121 C-51.86078024 45.64521591 -51.53887705 42.27577714 -51.21453857 38.90637207 C-51.12379059 37.89352646 -51.0330426 36.88068085 -50.93954468 35.83714294 C-49.91450001 25.46263777 -48.79058148 14.51182703 -40.86297607 7.03527832 C-34.07161605 1.84776246 -28.46315572 0.14107763 -20.01531982 0.16809082 C-18.92291489 0.14860382 -17.83050995 0.12911682 -16.70500183 0.10903931 C-13.49514502 0.06181782 -10.28659976 0.04456962 -7.0764389 0.04066467 C-4.71752154 0.03492436 -2.35885005 0.01861399 0 0 Z " fill="#F9F9F9" transform="translate(213.86297607421875,43.9647216796875)"/>
<path d="M0 0 C3.9282669 0.68359547 7.07946265 2.62776568 10.5 4.5625 C27.71234989 13.99336635 47.44408294 21.63125512 67 24 C68.28003906 24.16628906 68.28003906 24.16628906 69.5859375 24.3359375 C83.19869235 25.84846582 96.51165432 25.19480805 110 23 C111.33702529 22.8135609 112.67427158 22.62870073 114.01171875 22.4453125 C133.06337896 19.6620314 154.79851607 12.60071109 170.3984375 1.06640625 C172 0 172 0 174 0 C173.88241834 2.35472737 173.75589893 4.70850099 173.625 7.0625 C173.55539062 8.37347656 173.48578125 9.68445313 173.4140625 11.03515625 C173.03648983 16.36602807 172.2639795 21.63771098 171.53515625 26.92993164 C170.98209915 31.03311279 170.53761895 35.14433119 170.10546875 39.26171875 C169.87656114 41.36513659 169.64588408 43.46835401 169.41479492 45.5715332 C169.26275456 46.9869294 169.11663266 48.40297337 168.97631836 49.81958008 C167.93633782 60.22535551 166.75232405 71.98679791 158.75 79.5625 C151.15018304 84.90633046 143.21745568 85.43958667 134.16552734 85.38818359 C133.01478226 85.39344055 131.86403717 85.39869751 130.67842102 85.40411377 C126.89745268 85.41725313 123.11690968 85.40859798 119.3359375 85.3984375 C116.69755981 85.40045969 114.05918267 85.40337234 111.42080688 85.40713501 C105.90158526 85.41257659 100.38248449 85.40544155 94.86328125 85.39111328 C88.49600509 85.37477353 82.12901697 85.38009114 75.76174772 85.3965925 C69.61557744 85.41187878 63.46953421 85.41022091 57.32335281 85.4014473 C54.71668075 85.39944839 52.11000131 85.40189368 49.50333786 85.40888596 C45.86058891 85.41651512 42.21839152 85.40487544 38.57568359 85.38818359 C37.50225204 85.39425629 36.4288205 85.40032898 35.32286072 85.40658569 C25.8951079 85.32666408 18.88866251 82.61851888 12 76 C4.84571078 66.18659443 5.17979396 51.64341485 3.9375 40 C3.76276957 38.39578974 3.58764194 36.79162269 3.41210938 35.1875 C2.32956369 25.2589418 1.24780177 15.33013608 0.4375 5.375 C0.35371094 4.35148437 0.26992187 3.32796875 0.18359375 2.2734375 C0.12300781 1.52320313 0.06242188 0.77296875 0 0 Z " fill="#FBFBFB" transform="translate(158,385)"/>
<path d="M0 0 C11.87093515 9.41820566 19.23896703 21.03147856 22 36 C23.43952841 50.76251076 20.26898559 64.00734992 13 77 C13.43344727 77.39268066 13.86689453 77.78536133 14.31347656 78.18994141 C16.29841094 79.9950541 18.27420111 81.80989455 20.25 83.625 C20.93191406 84.24246094 21.61382812 84.85992187 22.31640625 85.49609375 C31.51389685 93.97921615 31.51389685 93.97921615 32.3828125 99.37890625 C31.909317 103.38926962 31.38353024 106.2157187 28.375 109.0625 C24.4415799 111.3205745 22.46335739 111.64921562 18 111 C12.82216568 108.65764638 9.30260631 104.41251372 5.5 100.2890625 C4.675 99.40992188 3.85 98.53078125 3 97.625 C2.175 96.73039062 1.35 95.83578125 0.5 94.9140625 C-1.8092001 92.72586215 -1.8092001 92.72586215 -4.51953125 93.08984375 C-6.94361999 93.97931253 -9.32215699 94.90144067 -11.6875 95.9375 C-24.23054167 100.96940837 -39.56415135 101.77801235 -52.50390625 97.203125 C-66.37448516 90.51746255 -77.45269202 81.48412493 -83.2265625 66.90234375 C-88.31486654 52.13161942 -88.90985471 36.70811508 -82.78125 22.09375 C-76.0657481 8.81197957 -64.5809429 -2.2179414 -50.46484375 -7.2578125 C-33.25676081 -12.43932717 -15.0530998 -10.35715879 0 0 Z M-57 23 C-61.92551763 30.70240385 -65.2405202 39.75812448 -64 49 C-61.97130298 58.08302983 -59.28979125 67.36854679 -51.30859375 72.84765625 C-42.52349739 77.795853 -35.11536241 79.07700101 -25 78 C-15.52839438 75.06671315 -8.43066651 69.24121253 -3.66015625 60.5625 C0.25575955 52.0896288 1.41473489 44.49307459 -1.625 35.5 C-5.47203537 25.88241157 -10.65423243 18.56485779 -20.125 13.96875 C-33.16199259 8.94019572 -47.9431078 12.1934809 -57 23 Z " fill="#F5F5F5" transform="translate(272,204)"/>
<path d="M0 0 C-3.27699329 3.94919705 -6.82968216 5.25826726 -11.625 6.625 C-12.33849609 6.83592285 -13.05199219 7.0468457 -13.78710938 7.26416016 C-22.16688097 9.69656897 -29.29020301 11.61292537 -38 10 C-38 9.67 -38 9.34 -38 9 C-37.07703125 8.86464844 -36.1540625 8.72929687 -35.203125 8.58984375 C-25.88754845 7.09334614 -17.30647914 4.5854408 -8.47753906 1.24975586 C-7.6625293 0.94561768 -6.84751953 0.64147949 -6.0078125 0.328125 C-5.28223145 0.0487207 -4.55665039 -0.23068359 -3.80908203 -0.51855469 C-2 -1 -2 -1 0 0 Z " fill="#B7B8B8" transform="translate(307,399)"/>
<path d="M0 0 C0 3 0 3 -2.375 5.6875 C-5 8 -5 8 -7 8 C-7.2475 8.721875 -7.495 9.44375 -7.75 10.1875 C-9.68767416 14.54726687 -12.03723926 17.3581595 -16 20 C-16.66 20.66 -17.32 21.32 -18 22 C-18 17.04747984 -16.1792648 15.48402572 -12.9375 12.125 C-12.43887451 11.59487305 -11.94024902 11.06474609 -11.42651367 10.51855469 C-7.82679346 6.73695999 -4.07986892 3.26389513 0 0 Z " fill="#C4C4C4" transform="translate(162,161)"/>
<path d="M0 0 C0.99 0.33 1.98 0.66 3 1 C1.39852104 3.10626032 -0.20604875 5.21003738 -1.8125 7.3125 C-2.26431641 7.90740234 -2.71613281 8.50230469 -3.18164062 9.11523438 C-5.31610234 11.90405661 -7.41080206 14.61724973 -10 17 C-10.33 16.01 -10.66 15.02 -11 14 C-9.66272397 11.86035835 -8.22698605 10.20952559 -6.375 8.5 C-4.84089348 7.06885884 -4.84089348 7.06885884 -4.5 4.9375 C-4 3 -4 3 -1 1 C-0.67 0.67 -0.34 0.34 0 0 Z " fill="#B2B2B2" transform="translate(176,195)"/>
<path d="M0 0 C0.66 0.33 1.32 0.66 2 1 C0.3790787 2.17232685 -1.24686833 3.3377077 -2.875 4.5 C-3.77992188 5.1496875 -4.68484375 5.799375 -5.6171875 6.46875 C-8 8 -8 8 -10 8 C-10.04125 8.61875 -10.0825 9.2375 -10.125 9.875 C-11 12 -11 12 -13.8125 13.3125 C-16.91991921 13.98272767 -18.08061566 13.88024821 -21 13 C-20.07058594 12.48050781 -19.14117187 11.96101563 -18.18359375 11.42578125 C-11.89617406 7.88730363 -5.75049999 4.38133333 0 0 Z " fill="#9D9D9D" transform="translate(302,332)"/>
<path d="M0 0 C-0.33 0.99 -0.66 1.98 -1 3 C-4.5625 4.1875 -4.5625 4.1875 -8 5 C-8 5.66 -8 6.32 -8 7 C-10.31 8.32 -12.62 9.64 -15 11 C-15.99 10.34 -16.98 9.68 -18 9 C-15.70870707 7.68684387 -13.4169845 6.37444807 -11.125 5.0625 C-10.47402344 4.68931641 -9.82304687 4.31613281 -9.15234375 3.93164062 C-2.2808277 0 -2.2808277 0 0 0 Z " fill="#939393" transform="translate(191,143)"/>
<path d="M0 0 C3.49397942 0.87349485 5.68637013 1.80541816 8.75 3.5625 C9.94882813 4.24505859 9.94882813 4.24505859 11.171875 4.94140625 C11.77515625 5.29074219 12.3784375 5.64007813 13 6 C9.23375329 7.25541557 7.62811066 6.37061958 4 5 C3.34 7.31 2.68 9.62 2 12 C1.67 12 1.34 12 1 12 C0.67 8.04 0.34 4.08 0 0 Z " fill="#B9B9B9" transform="translate(158,385)"/>
<path d="M0 0 C2.64 0 5.28 0 8 0 C8 0.66 8 1.32 8 2 C9.670625 1.9690625 9.670625 1.9690625 11.375 1.9375 C15 2 15 2 17 3 C17 3.66 17 4.32 17 5 C10.95198929 4.45018084 5.69398894 3.09570426 0 1 C0 0.67 0 0.34 0 0 Z " fill="#ABABAB" transform="translate(200,379)"/>
<path d="M0 0 C1.98567708 0.29296875 3.97135417 0.5859375 5.95703125 0.87890625 C8.2025342 1.13904799 8.2025342 1.13904799 11 0 C11.66 0.66 12.32 1.32 13 2 C9.29873141 4.46751239 7.37776468 4.30721156 3 4 C0.5625 3 0.5625 3 -1 2 C-0.67 1.34 -0.34 0.68 0 0 Z " fill="#A8A8A8" transform="translate(287,311)"/>
<path d="M0 0 C3.39756589 0.35763851 6.02623886 1.36922776 9 3 C9.7425 3.37125 10.485 3.7425 11.25 4.125 C11.8275 4.41375 12.405 4.7025 13 5 C12.67 5.99 12.34 6.98 12 8 C7.38 6.02 2.76 4.04 -2 2 C-1.34 1.34 -0.68 0.68 0 0 Z " fill="#B5B5B5" transform="translate(275,170)"/>
<path d="M0 0 C3.51705958 0.65271556 6.89325077 1.51393024 10.3125 2.5625 C11.19550781 2.83191406 12.07851562 3.10132813 12.98828125 3.37890625 C13.65214844 3.58386719 14.31601563 3.78882813 15 4 C14.67 4.66 14.34 5.32 14 6 C9.16371695 5.00956295 4.52381127 4.04301154 0 2 C0 1.34 0 0.68 0 0 Z " fill="#D3D5D4" transform="translate(210,346)"/>
<path d="M0 0 C1.32 0.33 2.64 0.66 4 1 C4 1.66 4 2.32 4 3 C4.99 3.33 5.98 3.66 7 4 C8.75 6.375 8.75 6.375 10 9 C9.67 9.99 9.34 10.98 9 12 C5.81994972 8.11327187 2.89445553 4.10047867 0 0 Z " fill="#B8B8B8" transform="translate(315,199)"/>
<path d="M0 0 C3.28788824 3.11016455 5.83735988 6.01618925 8 10 C7.01 10.33 6.02 10.66 5 11 C0.07692308 5.70769231 0.07692308 5.70769231 -0.3125 2.125 C-0.209375 1.42375 -0.10625 0.7225 0 0 Z " fill="#BDBDBD" transform="translate(169,312)"/>
<path d="M0 0 C1.60054291 4.80162874 -0.86164622 8.59709452 -3 13 C-5.25 16.125 -5.25 16.125 -7 18 C-7.33 17.01 -7.66 16.02 -8 15 C-7.1646875 13.9790625 -7.1646875 13.9790625 -6.3125 12.9375 C-3.20062542 8.98457823 -1.71338341 4.69357689 0 0 Z " fill="#BFBFC0" transform="translate(291,262)"/>
<path d="M0 0 C0.33 0.99 0.66 1.98 1 3 C0.45730469 3.38671875 -0.08539063 3.7734375 -0.64453125 4.171875 C-1.71767578 4.95304688 -1.71767578 4.95304688 -2.8125 5.75 C-3.52019531 6.26046875 -4.22789062 6.7709375 -4.95703125 7.296875 C-7.02977691 9.02482358 -8.47375854 10.78526476 -10 13 C-10.66 12.67 -11.32 12.34 -12 12 C-8.27653164 7.57905197 -4.70478962 3.42166518 0 0 Z " fill="#BDBDBD" transform="translate(207,205)"/>
<path d="M0 0 C7.01711648 0.80966729 10.09555941 2.09555941 15 7 C14.01 7.495 14.01 7.495 13 8 C10.71741367 6.92325298 8.5643566 5.80453884 6.375 4.5625 C5.76398438 4.22412109 5.15296875 3.88574219 4.5234375 3.53710938 C3.011647 2.69853808 1.50529601 1.85017423 0 1 C0 0.67 0 0.34 0 0 Z " fill="#B7B7B7" transform="translate(311,122)"/>
<path d="M0 0 C-0.33 0.99 -0.66 1.98 -1 3 C-6.02296004 4.13016601 -9.97874074 3.77916092 -15 3 C-15 2.67 -15 2.34 -15 2 C-13.2508503 1.66223316 -11.50063855 1.32996329 -9.75 1 C-8.77546875 0.814375 -7.8009375 0.62875 -6.796875 0.4375 C-4 0 -4 0 0 0 Z " fill="#A6A6A6" transform="translate(284,406)"/>
<path d="M0 0 C0.6290625 0.13277344 1.258125 0.26554687 1.90625 0.40234375 C7.26258811 1.50749182 12.56437906 2.39604212 18 3 C18 3.33 18 3.66 18 4 C16.20991533 4.22151549 14.41781838 4.42682213 12.625 4.625 C11.62726563 4.74101562 10.62953125 4.85703125 9.6015625 4.9765625 C8.74304688 4.98429687 7.88453125 4.99203125 7 5 C6.34 4.34 5.68 3.68 5 3 C2.42938689 2.35232207 2.42938689 2.35232207 0 2 C0 1.34 0 0.68 0 0 Z " fill="#9E9E9E" transform="translate(203,405)"/>
<path d="M0 0 C0.66 0.33 1.32 0.66 2 1 C-5.25 8.25 -5.25 8.25 -9 9 C-7.48328036 4.44984107 -3.83108947 2.49942736 0 0 Z " fill="#C3C3C3" transform="translate(179,47)"/>
<path d="M0 0 C6.36565978 -0.3672496 6.36565978 -0.3672496 9.375 1.375 C11 3 11 3 12 5 C7.61110675 4.33501617 4.0188515 2.81242323 0 1 C0 0.67 0 0.34 0 0 Z " fill="#BABABA" transform="translate(188,374)"/>
<path d="M0 0 C1.98 0.66 3.96 1.32 6 2 C0 6 0 6 -4 6 C-4 5.01 -4 4.02 -4 3 C-2.68 2.67 -1.36 2.34 0 2 C0 1.34 0 0.68 0 0 Z " fill="#B1B1B1" transform="translate(209,170)"/>
<path d="M0 0 C5.445 1.485 5.445 1.485 11 3 C7.41220825 3.89694794 4.65381163 4.08304117 1 4 C0.67 2.68 0.34 1.36 0 0 Z " fill="#969696" transform="translate(192,401)"/>
<path d="M0 0 C0.66 1.32 1.32 2.64 2 4 C-0.31 6.31 -2.62 8.62 -5 11 C-5.66 10.67 -6.32 10.34 -7 10 C-6.57847656 9.44570313 -6.15695312 8.89140625 -5.72265625 8.3203125 C-5.17480469 7.59585937 -4.62695312 6.87140625 -4.0625 6.125 C-3.51722656 5.40570313 -2.97195313 4.68640625 -2.41015625 3.9453125 C-0.96035376 2.05642921 -0.96035376 2.05642921 0 0 Z " fill="#D7D7D7" transform="translate(322,310)"/>
<path d="M0 0 C0.99 0.66 1.98 1.32 3 2 C-1.02167317 4.96837781 -4.00088076 6.52389341 -9 7 C-8.1646875 6.38125 -8.1646875 6.38125 -7.3125 5.75 C-4.83804044 3.87743601 -2.4164771 1.94660656 0 0 Z " fill="#C3C3C3" transform="translate(314,462)"/>
<path d="M0 0 C1.15224028 0.92961422 2.29659176 1.8690125 3.4375 2.8125 C4.07558594 3.33457031 4.71367187 3.85664063 5.37109375 4.39453125 C7 6 7 6 8 9 C7.01 9 6.02 9 5 9 C3.61328125 7.5390625 3.61328125 7.5390625 2.3125 5.625 C1.65701172 4.68527344 1.65701172 4.68527344 0.98828125 3.7265625 C0 2 0 2 0 0 Z " fill="#DDDDDD" transform="translate(273,206)"/>
<path d="M0 0 C1.32 0.33 2.64 0.66 4 1 C1.03 4.96 1.03 4.96 -2 9 C-2.66 8.01 -3.32 7.02 -4 6 C-3.525625 5.38125 -3.05125 4.7625 -2.5625 4.125 C-0.97582559 2.09294454 -0.97582559 2.09294454 0 0 Z " fill="#949494" transform="translate(169,203)"/>
<path d="M0 0 C1.14926266 0.95421808 2.29430541 1.91352045 3.4375 2.875 C4.07558594 3.40867187 4.71367187 3.94234375 5.37109375 4.4921875 C7 6 7 6 8 8 C5.69 7.34 3.38 6.68 1 6 C0.67 4.02 0.34 2.04 0 0 Z " fill="#9E9E9E" transform="translate(292,288)"/>
<path d="M0 0 C0 3 0 3 -1.53125 4.60546875 C-2.1809375 5.12753906 -2.830625 5.64960938 -3.5 6.1875 C-4.1496875 6.71730469 -4.799375 7.24710938 -5.46875 7.79296875 C-5.9740625 8.19128906 -6.479375 8.58960938 -7 9 C-7.66 8.67 -8.32 8.34 -9 8 C-6.03 5.36 -3.06 2.72 0 0 Z " fill="#AAAAAA" transform="translate(162,161)"/>
<path d="M0 0 C1.65 0 3.3 0 5 0 C1.4912812 3.09592835 -1.49197399 4.74194623 -6 6 C-5.34 4.68 -4.68 3.36 -4 2 C-3.01 2.33 -2.02 2.66 -1 3 C-0.67 2.01 -0.34 1.02 0 0 Z " fill="#AAAAAA" transform="translate(177,121)"/>
<path d="M0 0 C4.37859255 0.50522222 6.81651224 3.17827222 10 6 C9.01 6.33 8.02 6.66 7 7 C4.8125 5.6875 4.8125 5.6875 3 4 C3 3.34 3 2.68 3 2 C2.01 1.67 1.02 1.34 0 1 C0 0.67 0 0.34 0 0 Z " fill="#CACACB" transform="translate(282,281)"/>
<path d="M0 0 C2.88437779 1.29299694 4.87219421 2.65941363 7 5 C5.35 5.33 3.7 5.66 2 6 C0 2.25 0 2.25 0 0 Z " fill="#BDBDBD" transform="translate(314,151)"/>
<path d="M0 0 C-4.75 3.875 -4.75 3.875 -7 5 C-7.99 4.34 -8.98 3.68 -10 3 C-6.48812804 0.59185923 -4.27343092 -0.36629408 0 0 Z " fill="#C3C3C3" transform="translate(183,149)"/>
<path d="M0 0 C3.82097239 0.53069061 6.06171403 1.49701566 9 4 C3.375 4.25 3.375 4.25 0 2 C0 1.34 0 0.68 0 0 Z " fill="#A0A0A0" transform="translate(177,395)"/>
<path d="M0 0 C0.99 0.33 1.98 0.66 3 1 C1.02 3.31 -0.96 5.62 -3 8 C-3.33 7.34 -3.66 6.68 -4 6 C-3.0022242 3.00667261 -2.2477975 2.05233685 0 0 Z " fill="#A4A4A4" transform="translate(343,339)"/>
<path d="M0 0 C0.66 1.32 1.32 2.64 2 4 C0.67172689 6.85578718 -0.14643942 8.57321971 -3 10 C-2.01 6.7 -1.02 3.4 0 0 Z " fill="#A5A5A5" transform="translate(124,215)"/>
<path d="M0 0 C2.79872437 2.52788007 4.45773019 4.20411134 5 8 C3.0625 7.25 3.0625 7.25 1 6 C0.20124132 3.86997684 0 2.26695035 0 0 Z " fill="#C3C3C3" transform="translate(282,215)"/>
<path d="M0 0 C0.66 0.33 1.32 0.66 2 1 C2.625 4.0625 2.625 4.0625 3 7 C2.01 7.33 1.02 7.66 0 8 C-0.38063221 5.6739143 -0.71269945 3.33944736 -1 1 C-0.67 0.67 -0.34 0.34 0 0 Z " fill="#B9B9B9" transform="translate(120,285)"/>
<path d="M0 0 C2.32590854 3.63423209 2.16265833 6.77088331 2 11 C1.67 11 1.34 11 1 11 C1 9.02 1 7.04 1 5 C0.01 4.67 -0.98 4.34 -2 4 C-1.34 2.68 -0.68 1.36 0 0 Z " fill="#C1C1C1" transform="translate(370,234)"/>
<path d="M0 0 C0.33 0.66 0.66 1.32 1 2 C2.65 2 4.3 2 6 2 C3.08235 3.9451 1.37462715 4.45276317 -2 5 C-2 4.01 -2 3.02 -2 2 C-1.34 2 -0.68 2 0 2 C0 1.34 0 0.68 0 0 Z " fill="#D2D2D2" transform="translate(190,113)"/>
</svg>
